<svg width="24" height="24" viewBox="0 0 24 24" fill="none" xmlns="http://www.w3.org/2000/svg">
<path fill-rule="evenodd" clip-rule="evenodd" d="M3 14C3 13.7348 3.10536 13.4804 3.29289 13.2929C3.48043 13.1054 3.73478 13 4 13H16C16.7956 13 17.5587 12.6839 18.1213 12.1213C18.6839 11.5587 19 10.7956 19 10V6C19 5.73478 19.1054 5.48043 19.2929 5.29289C19.4804 5.10536 19.7348 5 20 5C20.2652 5 20.5196 5.10536 20.7071 5.29289C20.8946 5.48043 21 5.73478 21 6V10C21 11.3261 20.4732 12.5979 19.5355 13.5355C18.5979 14.4732 17.3261 15 16 15H4C3.73478 15 3.48043 14.8946 3.29289 14.7071C3.10536 14.5196 3 14.2652 3 14Z" fill="white"/>
<path fill-rule="evenodd" clip-rule="evenodd" d="M3.29279 14.707C3.10532 14.5195 3 14.2652 3 14C3 13.7348 3.10532 13.4805 3.29279 13.293L7.29279 9.293C7.48139 9.11084 7.73399 9.01005 7.99619 9.01233C8.25838 9.01461 8.5092 9.11978 8.6946 9.30518C8.88001 9.49059 8.98518 9.7414 8.98746 10.0036C8.98974 10.2658 8.88894 10.5184 8.70679 10.707L5.41379 14L8.70679 17.293C8.8023 17.3852 8.87848 17.4956 8.93089 17.6176C8.9833 17.7396 9.01088 17.8708 9.01204 18.0036C9.01319 18.1364 8.98789 18.2681 8.93761 18.391C8.88733 18.5139 8.81307 18.6255 8.71918 18.7194C8.62529 18.8133 8.51364 18.8875 8.39074 18.9378C8.26784 18.9881 8.13616 19.0134 8.00339 19.0123C7.87061 19.0111 7.73939 18.9835 7.61738 18.9311C7.49538 18.8787 7.38503 18.8025 7.29279 18.707L3.29279 14.707Z" fill="white"/>
</svg>
